<?xml version="1.0" encoding="UTF-8" standalone="no"?>
<svg
   xmlns:dc="http://purl.org/dc/elements/1.1/"
   xmlns:cc="http://creativecommons.org/ns#"
   xmlns:rdf="http://www.w3.org/1999/02/22-rdf-syntax-ns#"
   xmlns:svg="http://www.w3.org/2000/svg"
   xmlns="http://www.w3.org/2000/svg"
   xmlns:sodipodi="http://sodipodi.sourceforge.net/DTD/sodipodi-0.dtd"
   xmlns:inkscape="http://www.inkscape.org/namespaces/inkscape"
   width="10"
   height="10"
   viewBox="0 0 2.6458334 2.6458334"
   version="1.1"
   id="svg8"
   sodipodi:docname="export.svg"
   inkscape:version="1.0.2 (1.0.2+r75+1)">
  <defs
     id="defs2" />
  <sodipodi:namedview
     id="base"
     pagecolor="#ffffff"
     bordercolor="#666666"
     borderopacity="1.0"
     inkscape:pageopacity="0.0"
     inkscape:pageshadow="2"
     inkscape:zoom="32"
     inkscape:cx="5.308504"
     inkscape:cy="6.752613"
     inkscape:document-units="mm"
     inkscape:current-layer="layer1"
     showgrid="false"
     fit-margin-top="0"
     fit-margin-left="0"
     fit-margin-right="0"
     fit-margin-bottom="0"
     units="px"
     inkscape:window-width="1920"
     inkscape:window-height="1016"
     inkscape:window-x="0"
     inkscape:window-y="27"
     inkscape:window-maximized="1"
     inkscape:document-rotation="0" />
  <metadata
     id="metadata5">
    <rdf:RDF>
      <cc:Work
         rdf:about="">
        <dc:format>image/svg+xml</dc:format>
        <dc:type
           rdf:resource="http://purl.org/dc/dcmitype/StillImage" />
        <dc:title />
      </cc:Work>
    </rdf:RDF>
  </metadata>
  <g
     inkscape:label="Layer 1"
     inkscape:groupmode="layer"
     id="layer1"
     transform="translate(232.80261,-262.70072)">
    <path
       id="rect838"
       style="fill:#9bb0bf;fill-opacity:1;stroke-width:1"
       d="m -232.52356,263.02008 c -0.13723,0 -0.24753,0.11029 -0.24753,0.24753 v 1.82314 c 0,0.13724 0.1103,0.24754 0.24753,0.24754 h 2.08773 c 0.13723,0 0.24753,-0.1103 0.24753,-0.24754 v -1.82314 c 0,-0.13724 -0.1103,-0.24753 -0.24753,-0.24753 h -0.28733 v 0.11007 h 0.18759 c 0.12417,0 0.22428,0.10011 0.22428,0.22428 v 1.64951 c 0,0.12417 -0.10011,0.22427 -0.22428,0.22427 h -1.88826 c -0.12417,0 -0.22427,-0.1001 -0.22427,-0.22427 v -1.64951 c 0,-0.12417 0.1001,-0.22428 0.22427,-0.22428 h 0.18759 v -0.11007 z" />
    <path
       style="fill:#9bb0bf;fill-opacity:1;stroke-width:0.00359295"
       d="m -231.48031,262.70072 -0.32945,0.54279 -0.32948,0.54279 h 0.374 v 0.96422 c 0,0.004 0.003,0.006 0.007,0.006 h 0.55712 c 0.004,0 0.007,-0.003 0.007,-0.006 v -0.96422 h 0.37398 l -0.32946,-0.54279 z"
       id="path847"
       inkscape:connector-curvature="0" />
  </g>
</svg>
